<svg width="60" height="60" viewBox="0 0 60 60" fill="none" xmlns="http://www.w3.org/2000/svg">
<path d="M26.8229 6.78004C27.3975 6.20545 28.0899 5.7622 28.8523 5.4808C29.6147 5.19941 30.429 5.08654 31.2391 5.14998C32.0493 5.21341 32.8361 5.45164 33.5454 5.84827C34.2547 6.2449 34.8696 6.79051 35.3479 7.44754L36.1479 8.54754L19.9654 24.7325L19.0154 24.1C18.3231 23.6382 17.742 23.0285 17.3138 22.315C16.8856 21.6014 16.6211 20.8017 16.5393 19.9736C16.4575 19.1455 16.5605 18.3095 16.8408 17.526C17.1212 16.7424 17.5718 16.0309 18.1604 15.4425L26.8229 6.78004ZM23.1479 26.855L29.5529 31.1225C29.7695 31.2679 29.9534 31.457 30.0929 31.6775L33.1779 36.5225L48.2054 21.4925L42.8304 17.585C42.672 17.4691 42.5328 17.3291 42.4179 17.17L38.3829 11.62L23.1479 26.855ZM35.9079 40.815L35.2404 39.765L51.2754 23.725L52.5504 24.655C53.2076 25.1331 53.7534 25.7479 54.1502 26.4571C54.5471 27.1662 54.7856 27.953 54.8493 28.7632C54.9129 29.5734 54.8003 30.3877 54.5191 31.1502C54.2379 31.9127 53.7948 32.6052 53.2204 33.18L44.6304 41.7725C44.0348 42.3685 43.3129 42.8231 42.518 43.1026C41.7231 43.3822 40.8756 43.4796 40.0381 43.3877C39.2005 43.2958 38.3943 43.0169 37.679 42.5716C36.9637 42.1263 36.3601 41.526 35.9079 40.815ZM23.3529 30.7475L8.17037 45.6425C7.74093 46.0445 7.39646 46.5286 7.15732 47.066C6.91819 47.6035 6.78925 48.1834 6.77813 48.7715C6.76701 49.3597 6.87394 49.9441 7.09258 50.4902C7.31123 51.0363 7.63716 51.533 8.0511 51.951C8.46504 52.3689 8.95859 52.6996 9.50255 52.9235C10.0465 53.1474 10.6299 53.26 11.2181 53.2545C11.8063 53.2491 12.3875 53.1258 12.9272 52.8918C13.4669 52.6579 13.9542 52.3181 14.3604 51.8925L29.5729 36.68L27.5979 33.5775L23.3529 30.7475ZM36.8754 47.5C36.3781 47.5 35.9012 47.6976 35.5495 48.0492C35.1979 48.4008 35.0004 48.8778 35.0004 49.375C35.0004 49.8723 35.1979 50.3492 35.5495 50.7009C35.9012 51.0525 36.3781 51.25 36.8754 51.25H31.8754C31.3781 51.25 30.9012 51.4476 30.5495 51.7992C30.1979 52.1508 30.0004 52.6278 30.0004 53.125C30.0004 53.6223 30.1979 54.0992 30.5495 54.4509C30.9012 54.8025 31.3781 55 31.8754 55H53.1254C53.6227 55 54.0996 54.8025 54.4512 54.4509C54.8028 54.0992 55.0004 53.6223 55.0004 53.125C55.0004 52.6278 54.8028 52.1508 54.4512 51.7992C54.0996 51.4476 53.6227 51.25 53.1254 51.25H48.1254C48.6227 51.25 49.0996 51.0525 49.4512 50.7009C49.8028 50.3492 50.0004 49.8723 50.0004 49.375C50.0004 48.8778 49.8028 48.4008 49.4512 48.0492C49.0996 47.6976 48.6227 47.5 48.1254 47.5H36.8754Z" fill="#222222"/>
</svg>
