<svg width="61" height="60" viewBox="0 0 61 60" fill="none" xmlns="http://www.w3.org/2000/svg">
<path d="M21.125 11.25C21.125 8.7636 22.1127 6.37903 23.8709 4.62087C25.629 2.86272 28.0136 1.875 30.5 1.875C32.9864 1.875 35.371 2.86272 37.1291 4.62087C38.8873 6.37903 39.875 8.7636 39.875 11.25V31.875C39.875 34.3614 38.8873 36.746 37.1291 38.5041C35.371 40.2623 32.9864 41.25 30.5 41.25C28.0136 41.25 25.629 40.2623 23.8709 38.5041C22.1127 36.746 21.125 34.3614 21.125 31.875V11.25Z" fill="#222222"/>
<path d="M15.5 26.25C15.9973 26.25 16.4742 26.4475 16.8258 26.7992C17.1775 27.1508 17.375 27.6277 17.375 28.125V31.875C17.375 35.356 18.7578 38.6944 21.2192 41.1558C23.6806 43.6172 27.019 45 30.5 45C33.981 45 37.3194 43.6172 39.7808 41.1558C42.2422 38.6944 43.625 35.356 43.625 31.875V28.125C43.625 27.6277 43.8225 27.1508 44.1742 26.7992C44.5258 26.4475 45.0027 26.25 45.5 26.25C45.9973 26.25 46.4742 26.4475 46.8258 26.7992C47.1775 27.1508 47.375 27.6277 47.375 28.125V31.875C47.3749 36.0261 45.8451 40.0315 43.0779 43.1257C40.3107 46.2199 36.5003 48.1857 32.375 48.6475V54.375H39.875C40.3723 54.375 40.8492 54.5725 41.2008 54.9242C41.5525 55.2758 41.75 55.7527 41.75 56.25C41.75 56.7473 41.5525 57.2242 41.2008 57.5758C40.8492 57.9275 40.3723 58.125 39.875 58.125H21.125C20.6277 58.125 20.1508 57.9275 19.7992 57.5758C19.4475 57.2242 19.25 56.7473 19.25 56.25C19.25 55.7527 19.4475 55.2758 19.7992 54.9242C20.1508 54.5725 20.6277 54.375 21.125 54.375H28.625V48.6475C24.4997 48.1857 20.6893 46.2199 17.9221 43.1257C15.1549 40.0315 13.6251 36.0261 13.625 31.875V28.125C13.625 27.6277 13.8225 27.1508 14.1742 26.7992C14.5258 26.4475 15.0027 26.25 15.5 26.25Z" fill="#222222"/>
</svg>
