<svg width="60" height="60" viewBox="0 0 60 60" fill="none" xmlns="http://www.w3.org/2000/svg">
<path d="M40 27.5C44.15 27.5 47.475 24.15 47.475 20C47.475 15.85 44.15 12.5 40 12.5C35.85 12.5 32.5 15.85 32.5 20C32.5 24.15 35.85 27.5 40 27.5ZM20 27.5C24.15 27.5 27.475 24.15 27.475 20C27.475 15.85 24.15 12.5 20 12.5C15.85 12.5 12.5 15.85 12.5 20C12.5 24.15 15.85 27.5 20 27.5ZM20 32.5C14.175 32.5 2.5 35.425 2.5 41.25V45C2.5 46.375 3.625 47.5 5 47.5H35C36.375 47.5 37.5 46.375 37.5 45V41.25C37.5 35.425 25.825 32.5 20 32.5ZM40 32.5C39.275 32.5 38.45 32.55 37.575 32.625C37.625 32.65 37.65 32.7 37.675 32.725C40.525 34.8 42.5 37.575 42.5 41.25V45C42.5 45.875 42.325 46.725 42.05 47.5H55C56.375 47.5 57.5 46.375 57.5 45V41.25C57.5 35.425 45.825 32.5 40 32.5Z" fill="#222222"/>
</svg>
